<?xml version="1.0" standalone="no"?>
<!DOCTYPE svg PUBLIC "-//W3C//DTD SVG 20010904//EN"
 "http://www.w3.org/TR/2001/REC-SVG-20010904/DTD/svg10.dtd">
<svg version="1.0" xmlns="http://www.w3.org/2000/svg"
 width="610.000000pt" height="610.000000pt" viewBox="0 0 610.000000 610.000000"
 preserveAspectRatio="xMidYMid meet">
<metadata>
Created by potrace 1.14, written by Peter Selinger 2001-2017
</metadata>
<g transform="translate(0.000000,610.000000) scale(0.100000,-0.100000)"
fill="#000000" stroke="none">
<path d="M2500 5696 c0 -8 -6 -16 -12 -19 -9 -3 -10 -8 -2 -16 11 -12 104 -24
104 -13 0 4 -14 16 -30 27 -16 11 -30 23 -30 28 0 4 -7 7 -15 7 -8 0 -15 -6
-15 -14z"/>
<path d="M2010 5621 c0 -6 18 -16 150 -87 30 -16 57 -32 58 -36 2 -5 8 -8 13
-8 5 0 28 -12 50 -26 23 -14 42 -24 44 -22 2 2 -15 24 -38 49 -23 25 -58 63
-77 85 -27 30 -43 39 -70 40 -19 1 -56 4 -82 7 -27 2 -48 2 -48 -2z"/>
<path d="M550 5574 c-55 -32 -150 -123 -150 -143 0 -15 -2 -15 -83 25 -69 34
-76 36 -103 23 -64 -31 -54 -102 21 -143 22 -12 50 -27 61 -34 l22 -12 -25
-77 c-35 -111 -36 -229 -2 -298 26 -50 62 -80 110 -88 37 -7 119 23 168 62 23
18 43 32 44 30 33 -52 42 -111 42 -274 0 -147 -6 -222 -45 -530 -35 -273 -52
-592 -35 -655 3 -14 7 -29 9 -35 12 -53 65 -91 136 -99 78 -9 112 -17 135 -29
11 -6 22 -12 25 -12 4 -1 110 -25 135 -31 48 -11 131 -21 239 -29 39 -3 101
-8 137 -10 36 -3 97 -7 135 -10 38 -2 80 -7 94 -9 14 -2 43 -7 65 -10 22 -3
51 -8 65 -11 14 -3 37 -7 52 -10 26 -5 50 -13 106 -37 15 -6 29 -12 32 -12 26
-6 109 -68 149 -112 110 -120 253 -436 276 -611 2 -11 6 -29 9 -40 28 -93 26
-387 -3 -505 -5 -21 -8 -38 -6 -38 2 0 -10 -37 -27 -82 -16 -46 -30 -87 -31
-93 -6 -25 -82 -162 -158 -280 -45 -72 -91 -146 -102 -165 -51 -90 -131 -241
-132 -250 0 -3 -4 -10 -8 -16 -8 -14 -78 -174 -81 -189 -2 -5 -6 -17 -9 -25
-25 -65 -29 -93 -16 -102 32 -22 200 -98 274 -123 44 -15 87 -29 95 -32 8 -3
22 -7 30 -8 8 -2 40 -10 70 -18 95 -25 196 -42 345 -57 89 -8 447 -6 495 4 14
3 50 8 80 11 30 3 66 7 80 10 14 2 40 7 58 10 45 7 258 54 302 66 103 30 320
104 317 108 -27 48 -126 262 -152 331 -57 150 -114 363 -121 450 -1 19 -3 35
-4 35 -5 0 -11 100 -11 190 -1 97 6 194 17 245 3 14 7 38 9 54 7 45 54 184 81
240 14 28 51 76 83 106 97 93 145 178 171 305 14 67 20 234 8 241 -4 3 -5 11
-2 19 7 18 -19 143 -48 231 -17 49 -22 79 -16 99 14 55 52 58 177 16 47 -17
131 -39 186 -50 98 -20 129 -24 250 -38 75 -9 463 -9 530 0 28 3 77 9 110 13
78 8 104 21 128 64 15 27 52 136 56 165 1 3 1 6 2 8 0 1 3 13 5 27 40 225 44
253 59 450 14 169 20 513 11 528 -4 6 -2 13 4 17 6 4 8 11 4 16 -11 18 -14
221 -3 240 11 21 66 18 102 -6 30 -19 84 -25 120 -13 38 14 93 82 111 137 22
65 29 114 30 205 l1 80 74 18 c41 11 80 27 87 36 19 26 9 83 -17 103 -23 17
-35 17 -114 -1 -60 -14 -72 -12 -80 13 -4 12 -8 24 -9 27 -12 33 -54 97 -83
128 -63 65 -124 86 -185 63 -61 -23 -124 -129 -127 -214 -1 -14 -7 -18 -25
-15 -14 2 -38 -7 -56 -20 l-32 -24 -22 21 c-28 26 -46 26 -79 1 -24 -19 -27
-19 -63 -4 l-37 16 -33 -36 c-28 -30 -37 -35 -56 -27 -31 12 -52 -1 -68 -39
l-13 -31 -20 45 c-11 25 -23 46 -28 46 -5 0 -9 5 -9 12 0 7 -21 31 -46 55
-149 136 -294 12 -306 -261 l-3 -60 -80 -18 c-44 -10 -91 -20 -105 -22 -57 -9
-77 -24 -84 -60 -4 -22 -2 -43 6 -56 24 -39 63 -39 230 1 56 13 64 9 73 -34
10 -47 61 -139 103 -184 118 -128 246 -88 302 95 l18 57 45 1 45 1 26 -56 c15
-31 29 -67 32 -81 2 -14 9 -47 14 -74 16 -80 12 -227 -11 -342 -19 -101 -52
-209 -69 -228 -5 -5 -45 -1 -92 8 -46 9 -96 19 -113 22 -23 4 -461 90 -560
110 -98 20 -126 15 -260 -46 -127 -58 -264 -110 -289 -110 -27 0 -75 -10 -126
-25 -90 -27 -123 -28 -210 -9 -62 13 -122 60 -163 125 -22 36 -19 165 6 202 9
14 17 33 17 42 0 25 17 17 39 -17 11 -18 47 -60 80 -93 49 -47 61 -55 61 -39
0 11 -3 24 -7 28 -4 3 -7 14 -8 24 -1 9 -5 40 -9 69 l-8 52 34 -7 c83 -15 235
2 239 27 0 3 2 30 3 59 1 39 6 56 19 63 23 13 22 46 -2 61 -19 12 -19 12 0 39
18 25 18 29 3 64 l-15 38 40 41 c23 23 41 48 41 55 0 8 -25 51 -56 98 l-57 83
14 78 c7 42 13 79 12 82 -1 3 -4 25 -8 49 -3 24 -15 67 -25 95 -16 42 -18 63
-11 125 7 70 6 75 -17 103 -29 35 -112 96 -162 121 -49 23 -286 113 -335 126
-87 22 -104 24 -225 25 -105 0 -176 -5 -187 -14 -2 -2 -6 -3 -10 -4 -29 -5
-116 -44 -153 -69 -43 -28 -103 -39 -130 -22 -22 14 -30 -7 -15 -41 l15 -36
-54 -66 c-29 -37 -55 -71 -57 -77 -11 -28 -92 -145 -101 -145 -5 0 -15 6 -23
13 -16 15 -42 36 -82 64 l-32 23 5 -96 c3 -75 9 -104 27 -134 20 -35 21 -42 8
-72 -21 -51 -91 -251 -95 -273 -3 -11 -12 -53 -20 -93 -23 -104 -34 -186 -42
-312 -7 -99 -7 -149 0 -243 7 -107 16 -92 17 29 0 60 2 116 3 124 2 8 7 42 11
75 5 33 9 62 10 65 0 3 5 28 10 55 13 75 12 74 37 168 12 48 26 87 31 87 4 0
6 -3 4 -7 -5 -8 -10 -38 -22 -128 -3 -28 -8 -64 -11 -80 -8 -54 -12 -459 -5
-518 7 -53 5 -58 -13 -62 -12 -2 -46 -9 -76 -15 -30 -6 -86 -20 -125 -32 -38
-11 -72 -20 -75 -20 -3 0 -14 -5 -25 -11 -12 -7 -87 -12 -195 -13 -96 -1 -226
-5 -287 -9 -93 -6 -113 -5 -114 6 -1 18 -6 54 -24 164 -8 50 -17 113 -20 140
-4 28 -9 58 -11 68 -3 10 -7 33 -10 52 -6 53 -11 93 -24 175 -6 41 -13 93 -16
115 -3 22 -8 51 -11 65 -6 34 -16 110 -17 139 -1 20 5 26 31 32 44 9 52 0 57
-63 2 -30 12 -72 21 -92 19 -40 67 -85 93 -87 46 -4 90 4 127 24 55 30 171
147 188 190 6 16 19 11 113 -39 88 -47 111 -55 139 -50 24 5 36 14 45 37 23
55 6 75 -115 141 -60 33 -111 61 -112 62 -1 1 5 22 13 46 23 66 26 190 7 250
-15 47 -63 109 -87 111 -6 1 -24 3 -41 5 -16 2 -45 -1 -63 -7 -34 -11 -133
-75 -144 -93 -3 -6 -20 -28 -36 -49 l-30 -38 -32 68 c-44 93 -58 118 -67 117
-5 -1 -17 -4 -28 -8 -16 -5 -23 0 -32 25 -12 30 -14 31 -54 25 -35 -6 -44 -3
-56 14 -14 20 -53 28 -53 10 0 -14 -24 -12 -38 3 -7 6 -18 12 -25 12 -7 0 -11
11 -9 25 10 86 3 151 -21 203 -30 66 -59 87 -124 91 -39 1 -59 -4 -103 -30z
m1611 -522 c-6 -11 -23 -19 -47 -20 -21 -2 -36 0 -33 2 4 5 71 31 87 35 1 1
-2 -7 -7 -17z"/>
<path d="M1838 5499 c-21 -27 -38 -53 -38 -57 0 -4 -12 -20 -27 -37 -41 -43
-5 -25 76 41 l72 57 -22 24 c-13 12 -23 23 -23 23 -1 0 -18 -23 -38 -51z"/>
<path d="M2100 5419 c-132 -41 -129 -39 -100 -51 14 -5 36 -12 50 -14 14 -3
41 -10 60 -16 19 -7 38 -13 43 -14 4 -1 8 -2 10 -4 1 -1 9 -3 17 -5 8 -1 27
-6 41 -10 l27 -7 -19 58 c-10 31 -19 63 -19 70 0 23 -14 22 -110 -7z"/>
<path d="M1545 5279 c17 -11 47 -29 68 -40 38 -20 40 -20 60 -2 49 42 61 53
56 54 -2 0 -51 3 -109 5 l-105 4 30 -21z"/>
</g>
</svg>
